# xmcd
#
# Track frame offsets:
# 182
# 21515
# 43202
# 57917
# 81845
# 101577
# 116165
# 132320
# 145985
# 162737
# 179227
# 198487
# 211750
# 227957
# 249112
# 269807
# 289595
# 302500
#
# Disc length: 4238 seconds
#
#
# Revision: 2
# Processed by: cddbd v1.5.1PL0 Copyright (c) Steve Scherf et al.
# Submitted via: FreeRIP 2.942 
#
DISCID=1a108c12
DTITLE=Varios - Canto E Encanto Nativo - Vol. 2
DYEAR=1900
DGENRE=Gauchesca
TTITLE0=Por Quem Cantam Os Cardeais
TTITLE1=Paix o Campesina
TTITLE2=Milonga Do Vaqueano
TTITLE3=Aos Desgarrados Do Pago
TTITLE4=Fim De M s
TTITLE5=Alma De Campo
TTITLE6=Doze Bra as
TTITLE7=Tch  De Bombacha
TTITLE8=Cheiro De Galp o
TTITLE9=Guardi o Das Est ncias
TTITLE10=Trem De Lata
TTITLE11=Em Agonia
TTITLE12=Me Comparando Ao Rio Grande
TTITLE13=Queixo Duro
TTITLE14=Chasque Para Don Munhoz
TTITLE15=O Porque Das Velas
TTITLE16=Chimarrita Sem Fronteira
TTITLE17=Cambicho De Baile
EXTD=
EXTT0=Jo o Chagas Leite\n(Vaine Darde - Jo o Chagas Leite)
EXTT1=Wilson Paim\n(luiz Ailton Goudinho - Zulmar Benitez)
EXTT2=Adair De Freitas\n(Adair De Freitas)
EXTT3=Leonardo\n(Leonardo)
EXTT4=Cesar Passarinho\n(Juliano Trindade - Mauro Moraes)
EXTT5=Nelcy Vargas\n(Lauro A. C.  Sim es - Nelcy Vargas)
EXTT6=Os Farrapos\n(Iedo Silva - Calico Ribeiro)
EXTT7=Os Mirins\n(Vaine Darde - Jaime Junior)
EXTT8=(Sergio Rosa - Nilo Bairros De Brum)
EXTT9=Grupo Quero Quero\n(Xiru Gaud rio)
EXTT10=Wilson Paim\n(Jos  Vigilio De Almeida Le es - Wilson Paim)
EXTT11=Nelcy De Vargas\n(Paulo De Freitas Mendon a - Nelcy Vargas)
EXTT12=(Iedo Silva - Xar  - Luis Carlos)
EXTT13=Pedro Orta a\n(Pedro Orta a)
EXTT14=Jos  Cl udio Machado\n(Gaspar Machado - Airton Pimentel)
EXTT15=Grupo Parceria\n(Arnaldo Vasquez - Ad o Quintana)
EXTT16=Os Nativos\n(Noel Guarany)
EXTT17=Adelar Bertussi E Grupo\n(Edison Campagna)
PLAYORDER=
